<?xml version="1.0" encoding="UTF-8"?>
<!DOCTYPE svg PUBLIC "-//W3C//DTD SVG 1.1//EN" "http://www.w3.org/Graphics/SVG/1.1/DTD/svg11.dtd">
<!-- Creator: CorelDRAW X8 -->
<svg xmlns="http://www.w3.org/2000/svg" xml:space="preserve" width="33.8666mm" height="33.8666mm" version="1.1" style="shape-rendering:geometricPrecision; text-rendering:geometricPrecision; image-rendering:optimizeQuality; fill-rule:evenodd; clip-rule:evenodd"
viewBox="0 0 3387 3387"
 xmlns:xlink="http://www.w3.org/1999/xlink">
 <defs>
  <style type="text/css">
   <![CDATA[
    .fil0 {fill:#28AAE1}
   ]]>
  </style>
 </defs>
 <g id="Camada_x0020_1">
  <metadata id="CorelCorpID_0Corel-Layer"/>
  <path class="fil0" d="M2822 1951l-509 0c-7,0 -17,-4 -25,-5 -56,-12 -91,-62 -91,-122l0 -286c0,-35 10,-63 33,-87 20,-23 50,-35 81,-37 24,-2 93,-5 117,-2 32,5 281,0 332,0 12,0 17,-2 29,-2 60,4 114,13 142,76 7,16 9,30 8,53 0,13 2,18 2,29 0,90 1,181 -1,271 -2,51 -40,92 -86,106 -6,2 -24,6 -32,6zm-392 -708l2 82c0,13 2,18 2,30 0,11 -2,18 -2,30l-132 0c0,-28 -2,-51 -2,-80 0,-13 2,-24 2,-39 0,-73 -3,-103 43,-164 37,-51 89,-81 148,-98 92,-26 196,-4 266,57 7,6 14,11 20,19 4,4 6,6 10,11 29,31 52,89 52,133 0,14 0,27 0,41 0,15 2,25 2,40 0,13 0,27 0,40 0,14 -2,24 -2,40l-132 0c0,-10 -2,-12 -2,-20 0,-48 10,-125 -6,-167 -10,-27 -21,-41 -44,-58 -54,-42 -140,-35 -185,10 -11,12 -22,21 -28,37 -7,15 -12,35 -12,56zm-747 862c0,417 10,828 10,1245 26,-1 89,-32 113,-48l94 -69c17,-15 46,-42 61,-60 66,-79 101,-119 149,-218 110,-230 79,-472 79,-722 23,5 49,16 72,23 43,14 83,24 128,34 135,31 296,41 431,9 109,-25 216,-71 299,-143l60 -57c5,-5 6,-7 10,-12l22 -25c5,-5 6,-8 11,-13 24,-31 47,-64 64,-99 3,-6 6,-10 9,-15 57,-111 92,-253 92,-376l0 -2c0,-48 -1,-100 -8,-146 -3,-29 -9,-63 -15,-90 -14,-59 -30,-108 -52,-159 -34,-82 -79,-151 -135,-220l-50 -55c-22,-18 -41,-39 -64,-56 -6,-4 -9,-7 -15,-11l-47 -33c-21,-14 -44,-27 -67,-38 -48,-24 -99,-44 -151,-59 -68,-20 -160,-35 -232,-35 -71,0 -113,2 -181,13 -110,18 -216,63 -304,122l-61 45c-26,21 -49,44 -73,67 -29,30 -54,65 -79,98 -15,21 -29,43 -41,65l-47 96c-34,78 -71,230 -70,318 0,14 -2,20 -2,33 0,14 0,24 -1,36 -1,10 0,24 0,35 0,11 -2,20 -2,33l-5 208c-2,20 0,114 0,141 0,13 -2,20 -2,33l0 107z"/>
  <path class="fil0" d="M0 1154c0,8 2,11 2,20 0,16 0,31 0,47 0,18 1,29 1,47 0,64 4,125 4,189 0,62 -2,119 -2,181 0,17 -2,29 -2,44 0,15 0,31 0,47l2 43c0,8 0,16 0,24 0,8 2,11 2,21 -1,33 13,128 22,160 9,32 11,40 23,70l14 31c15,31 33,57 54,83 32,42 78,80 123,107 36,22 88,43 129,53 13,3 25,6 38,9 80,19 162,18 243,18 9,0 20,1 28,0 21,-2 56,-3 83,-6 18,-2 37,-3 54,-5l144 -17c7,-1 6,-1 6,-8l-3 -115c-1,-18 1,-40 0,-58l-5 -171c0,-4 0,-9 0,-14 0,-8 1,-8 -4,-9l-81 8c-74,8 -226,20 -282,-32 -6,-7 -12,-12 -18,-19 -11,-15 -19,-30 -25,-48 -6,-16 -12,-39 -15,-58l-9 -83c0,-6 0,-12 0,-18l-2 -35c0,-25 -1,-46 -1,-72 0,-152 5,-299 5,-451l0 -107 413 0c0,-17 2,-29 2,-45 0,-16 0,-32 0,-49l2 -45c0,-15 -2,-33 1,-47 2,-17 0,-50 0,-70 1,-9 2,-13 2,-24 0,-33 2,-63 2,-95l-409 0c0,-24 -2,-42 -2,-65l-6 -198c0,-11 -2,-19 -2,-32 0,-13 -1,-21 -2,-32 -1,-13 1,-25 -1,-48l-2 -50c-1,-11 0,-23 0,-34 0,-10 -2,-19 -2,-32l-1 -33c-25,0 -99,30 -123,44 -37,22 -81,47 -113,77 -23,21 -43,37 -66,61 -38,39 -95,110 -121,154 -5,9 -10,17 -16,26 -17,27 -23,42 -35,68 -3,5 -5,10 -7,15 -9,22 -13,43 -19,67 -5,23 -7,47 -10,73 -4,26 -5,53 -8,78l-3 80c0,28 -2,53 -2,83l0 1 0 196z"/>
  <path class="fil0" d="M1100 2316c0,4 2,5 5,5l495 0c3,0 5,-1 5,-5l0 -1649 -505 0 0 1649z"/>
  <path class="fil0" d="M1074 305c0,47 0,71 18,116 25,65 70,114 131,148 82,45 172,45 258,11 14,-6 33,-17 46,-26 8,-5 13,-9 20,-15 19,-14 31,-27 45,-45 63,-77 80,-196 36,-288 -8,-17 -6,-15 -18,-34 -32,-48 -67,-80 -120,-107 -47,-24 -88,-28 -142,-28 -56,0 -109,23 -151,51 -41,27 -73,65 -95,109 -14,27 -28,69 -28,108z"/>
  <path class="fil0" d="M1054 2588l0 -31c-23,0 -37,-3 -37,6l0 206 37 0 0 -113c0,-42 14,-73 58,-73 38,0 52,25 52,63l0 123 35 0 0 -119c0,-80 80,-77 99,-51 8,10 12,30 12,47l0 123 37 0 0 -146c0,-76 -91,-94 -137,-47 -5,5 -10,13 -14,17 -9,-40 -76,-54 -113,-31 -21,12 -21,20 -29,26z"/>
  <path class="fil0" d="M102 2502c0,40 13,65 46,85 38,23 112,32 112,88 0,25 0,32 -19,51 -22,22 -72,22 -93,-3 -8,-9 -18,-27 -19,-42 -8,1 -30,13 -37,17 1,21 20,48 36,60 39,29 106,26 144,-8 34,-30 42,-101 7,-139 -19,-20 -47,-32 -74,-43 -26,-11 -61,-24 -61,-57l0 -10c0,-39 70,-71 106,-4 12,-6 23,-14 35,-22 -9,-12 -16,-25 -31,-34 -54,-35 -152,-10 -152,61z"/>
  <path class="fil0" d="M1501 2588c26,0 40,2 58,24 30,35 26,130 -50,130 -31,0 -55,-15 -64,-42 -8,-24 -9,-63 8,-88 9,-12 28,-24 48,-24zm-101 65c0,32 0,56 21,85 26,37 78,50 113,33 26,-12 28,-19 40,-35 2,-3 1,-1 2,-3l0 36 37 0 0 -206c0,-9 -12,-6 -34,-6 -8,0 -5,20 -5,36 -5,-4 -2,-2 -5,-8 -7,-9 -13,-15 -22,-22 -33,-22 -96,-14 -119,17 -9,11 -14,18 -19,31 -5,12 -9,26 -9,42z"/>
  <path class="fil0" d="M861 2583c37,0 64,20 64,57l-126 0c0,-9 3,-17 6,-23 5,-10 6,-10 13,-17 9,-10 25,-17 43,-17zm-102 73c0,33 3,56 23,83 8,10 13,15 24,22 12,8 19,10 33,14 39,10 79,-2 105,-29 7,-6 17,-18 19,-28 -9,-2 -19,-14 -28,-16 -41,76 -136,47 -136,-24l0 -8 166 0c0,-38 -3,-60 -25,-88 -37,-45 -141,-49 -173,32 -4,11 -8,28 -8,42z"/>
  <path class="fil0" d="M2506 1651c0,37 31,48 31,56l0 48c-3,23 -5,77 31,77 40,0 33,-48 33,-83 0,-10 -2,-17 -2,-24 1,-7 2,-13 2,-23 38,-26 39,-68 11,-94 -42,-39 -106,-6 -106,43z"/>
  <path class="fil0" d="M451 2609c0,33 22,48 48,61 40,19 65,14 65,47 0,33 -58,38 -82,8 -3,-4 -6,-9 -10,-12 -10,6 -19,13 -30,19 3,12 18,25 28,32 7,4 13,7 21,9 10,4 15,3 28,4 15,2 37,-2 49,-9 39,-20 55,-85 -3,-111 -29,-13 -78,-20 -78,-46 0,-32 57,-49 82,0 8,-4 23,-15 31,-17 -10,-42 -84,-58 -126,-28 -12,8 -23,24 -23,43z"/>
  <path class="fil0" d="M662 2557c-49,0 -41,-6 -41,27 0,9 17,5 41,5l0 180 36 0 0 -180 39 0 0 -32 -39 0 0 -83 -36 0 0 83z"/>
  <path class="fil0" d="M352 2563l0 200c0,9 15,6 38,6l0 -206c0,-9 -12,-6 -33,-6 -4,0 -5,2 -5,6z"/>
  <path class="fil0" d="M343 2457c0,8 4,14 8,19 25,27 63,-11 40,-36 -19,-21 -48,-1 -48,17z"/>
 </g>
</svg>
